Coordinates
version=1
nRows=24
nColumns=24
inDegrees=yes

Units are S.I. units (second, meters, Newtons, ...)
Angles are in degrees.

endheader
time	pelvis_tilt	pelvis_list	pelvis_rotation	pelvis_tx	pelvis_ty	pelvis_tz	hip_flexion_r	hip_adduction_r	hip_rotation_r	knee_angle_r	ankle_angle_r	subtalar_angle_r	mtp_angle_r	hip_flexion_l	hip_adduction_l	hip_rotation_l	knee_angle_l	ankle_angle_l	subtalar_angle_l	mtp_angle_l	lumbar_extension	lumbar_bending	lumbar_rotation
      1.71233333	      2.81301368	      0.98390903	     -6.24680727	      1.33710028	      1.02125596	      0.29540086	     21.71474605	     -3.76794475	     -5.57492521	    -71.58403503	      1.09038667	    -10.45422195	     -4.45000283	      6.10076674	      2.40646112	     -5.84925400	    -12.08050716	     -0.81628450	    -17.74926016	     -4.26891087	    -12.33235961	     -4.54556464	      1.08194680
      1.71650000	      2.94494337	      0.82802855	     -5.88629535	      1.34204503	      1.02231927	      0.29449092	     22.01431622	     -3.70015413	     -6.00982610	    -70.97615071	      1.50673568	    -10.47382432	     -4.42762896	      5.48945112	      2.36099976	     -5.55481570	    -11.73504377	     -0.80120636	    -17.69276167	     -4.24313134	    -12.54838808	     -4.23737511	      0.80790992
      1.72066667	      3.07215734	      0.66489207	     -5.53470508	      1.34696561	      1.02334949	      0.29360479	     22.30470545	     -3.62629222	     -6.44347849	    -70.31965182	      1.89339174	    -10.52507410	     -4.42367942	      4.88608643	      2.29746193	     -5.27648155	    -11.39539209	     -0.78604626	    -17.62770242	     -4.21258919	    -12.76029010	     -3.91732829	      0.52936827
      1.72483333	      3.16215924	      0.51701487	     -5.16714786	      1.35186244	      1.02426416	      0.29271177	     22.62756019	     -3.57846766	     -6.88742892	    -69.63635963	      2.28264426	    -10.54432371	     -4.43496920	      4.34377548	      2.23755015	     -4.98564504	    -11.08453234	     -0.75402086	    -17.54752601	     -4.17960644	    -12.92514906	     -3.60970878	      0.25097179
      1.72900000	      3.26945295	      0.38464876	     -4.83104772	      1.35672193	      1.02515857	      0.29187346	     22.93039418	     -3.54188794	     -7.29582251	    -68.92301726	      2.67480323	    -10.54249081	     -4.46248321	      3.77411385	      2.19004847	     -4.70529004	    -10.75517701	     -0.73739029	    -17.50409638	     -4.14388256	    -13.10951146	     -3.32751399	     -0.01509428
      1.73316667	      3.35257605	      0.23612116	     -4.50034357	      1.36160121	      1.02599726	      0.29110213	     23.23555217	     -3.48209231	     -7.70239209	    -68.15426758	      3.03454512	    -10.55272061	     -4.49878069	      3.23924379	      2.10647728	     -4.47083494	    -10.43835796	     -0.70841242	    -17.41034368	     -4.10607798	    -13.25542588	     -3.03199839	     -0.22600280
      1.73733333	      3.43869029	      0.10865719	     -4.17357565	      1.36641073	      1.02677636	      0.29031587	     23.53152683	     -3.45498186	     -8.10018483	    -67.36231807	      3.41519060	    -10.52775824	     -4.54797767	      2.71252364	      2.04379632	     -4.21048829	    -10.14315948	     -0.66886560	    -17.33676395	     -4.06495553	    -13.41700306	     -2.74649434	     -0.45627473
      1.74150000	      3.52281065	     -0.00370245	     -3.87313161	      1.37125979	      1.02750628	      0.28959937	     23.82348875	     -3.43716701	     -8.46952251	    -66.53801735	      3.76991744	    -10.49269863	     -4.60886761	      2.18123260	      1.98774649	     -3.98852816	     -9.83415072	     -0.63140096	    -17.26173411	     -4.01738774	    -13.56085497	     -2.48369387	     -0.67983212
      1.74566667	      3.61376356	     -0.11180272	     -3.53683601	      1.37601008	      1.02821652	      0.28883021	     24.08543825	     -3.44368765	     -8.87282436	    -65.66783089	      4.12840728	    -10.49444363	     -4.70356360	      1.66160886	      1.93331706	     -3.71469087	     -9.54823784	     -0.59805881	    -17.20466686	     -3.95205473	    -13.72716758	     -2.23105519	     -0.93176324
      1.74983333	      3.60584538	     -0.18820351	     -3.31616328	      1.38082645	      1.02869298	      0.28833121	     24.47501281	     -3.42173979	     -9.14161510	    -64.79382263	      4.47157433	    -10.38475663	     -4.75864950	      1.23895131	      1.88803207	     -3.57822937	     -9.25620768	     -0.55580398	    -17.11392500	     -3.91469605	    -13.75041877	     -2.01999380	     -1.01734319
      1.75400000	      3.64884439	     -0.28241068	     -3.02362403	      1.38560044	      1.02922896	      0.28768759	     24.76762489	     -3.42567925	     -9.48914005	    -63.86132640	      4.80781814	    -10.29880648	     -4.83373663	      0.78537387	      1.82679425	     -3.37609020	     -9.00315638	     -0.48572326	    -17.01279228	     -3.86243484	    -13.84670814	     -1.78689866	     -1.20207913
      1.75816667	      3.62574598	     -0.31680879	     -2.84885205	      1.39033719	      1.02957704	      0.28740402	     25.16152695	     -3.41292699	     -9.68555079	    -62.93229861	      5.17667707	    -10.27704690	     -4.86934847	      0.39098838	      1.80610119	     -3.30390708	     -8.72320813	     -0.48869340	    -16.92195829	     -3.83848569	    -13.85805486	     -1.67762385	     -1.27853256
      1.76233333	      3.70143641	     -0.42186567	     -2.51456374	      1.39505015	      1.03011042	      0.28664232	     25.36997180	     -3.44478442	    -10.08186004	    -61.89893854	      5.42917740	    -10.12310873	     -4.96973987	     -0.08722521	      1.73332562	     -3.01751509	     -8.48748837	     -0.33926233	    -16.79975060	     -3.77031469	    -14.00687009	     -1.40302427	     -1.49202687
      1.76650000	      3.65037580	     -0.43505577	     -2.37047988	      1.39980927	      1.03032613	      0.28641725	     25.76759135	     -3.44819059	    -10.24068026	    -60.90679543	      5.77653145	    -10.07530175	     -5.00664037	     -0.44302001	      1.72811731	     -2.97893504	     -8.23134716	     -0.33801557	    -16.72938428	     -3.74588402	    -13.97720800	     -1.30630734	     -1.55376960
      1.77066667	      3.67340612	     -0.49014783	     -2.09229343	      1.40451625	      1.03065457	      0.28582713	     26.02748737	     -3.50131476	    -10.55514905	    -59.83407292	      6.01941436	     -9.91756539	     -5.10281482	     -0.85389813	      1.69035052	     -2.78033231	     -8.01568145	     -0.17049176	    -16.56633100	     -3.68039976	    -14.05126559	     -1.10482055	     -1.72401448
      1.77483333	      3.66672521	     -0.52084244	     -1.85581919	      1.40919671	      1.03090226	      0.28539540	     26.31346039	     -3.54525202	    -10.81168484	    -58.73559686	      6.29050692	     -9.85933839	     -5.23992995	     -1.23830571	      1.66914561	     -2.61388402	     -7.77876463	     -0.11531311	    -16.48038507	     -3.59270993	    -14.09742770	     -0.95982648	     -1.88613779
      1.77900000	      3.59113907	     -0.49450366	     -1.75046289	      1.41393493	      1.03093298	      0.28528329	     26.70160242	     -3.57329818	    -10.90588158	    -57.65092471	      6.56401163	     -9.76339057	     -5.27258560	     -1.55949713	      1.69668745	     -2.60348882	     -7.53888990	     -0.05583714	    -16.38701763	     -3.57001729	    -14.03832916	     -0.91728700	     -1.90325999
      1.78316667	      3.56662010	     -0.51417278	     -1.52383556	      1.41861119	      1.03106059	      0.28488674	     26.97530297	     -3.62999829	    -11.14869701	    -56.48086074	      6.76578386	     -9.64254574	     -5.36822902	     -1.91130021	      1.67762782	     -2.46829493	     -7.34061868	      0.11903922	    -16.20167030	     -3.50376077	    -14.06166970	     -0.78271776	     -1.99579088
      1.78733333	      3.55237451	     -0.50452101	     -1.35086216	      1.42330647	      1.03113945	      0.28462004	     27.23582523	     -3.68542007	    -11.31987449	    -55.29724933	      6.98780458	     -9.54880421	     -5.47070499	     -2.28141225	      1.68790084	     -2.38854743	     -7.13311254	      0.23363482	    -16.07357597	     -3.43654661	    -14.08380804	     -0.69566878	     -2.08885048
      1.79150000	      3.45765873	     -0.45251294	     -1.24885899	      1.42803860	      1.03103044	      0.28454854	     27.59056639	     -3.73759509	    -11.39852496	    -54.10533862	      7.21900394	     -9.49624153	     -5.50577303	     -2.57837202	      1.73661195	     -2.38135913	     -6.90133018	      0.30268682	    -15.97105920	     -3.41224222	    -14.00882914	     -0.68069034	     -2.11937447
      1.79566667	      3.41044275	     -0.43950981	     -1.03983328	      1.43269828	      1.03099673	      0.28425938	     27.83932066	     -3.81177319	    -11.60265428	    -52.84226558	      7.37368395	     -9.42968429	     -5.60447430	     -2.89200241	      1.73935542	     -2.28710617	     -6.73019836	      0.50536735	    -15.75692899	     -3.34570060	    -13.99853924	     -0.59184994	     -2.21347433
      1.79983333	      3.31412631	     -0.32224819	     -0.96484029	      1.43738268	      1.03075297	      0.28423852	     28.19001931	     -3.91914505	    -11.62620402	    -51.62408237	      7.56441303	     -9.42092937	     -5.61908392	     -3.18512626	      1.86096549	     -2.26454602	     -6.50029813	      0.60600549	    -15.68459168	     -3.33424451	    -13.92757533	     -0.65788076	     -2.22927806
      1.80400000	      3.21062315	     -0.30429355	     -0.81243887	      1.44213166	      1.03055874	      0.28410977	     28.46512547	     -3.95777431	    -11.75617050	    -50.29602441	      7.76328444	     -9.31276111	     -5.66098414	     -3.44619199	      1.86257777	     -2.24476104	     -6.32670986	      0.71546193	    -15.52798311	     -3.30445281	    -13.83764224	     -0.59015303	     -2.26442289
      1.80816667	      3.15189307	     -0.26434013	     -0.65046791	      1.44681409	      1.03037954	      0.28394370	     28.67879886	     -4.02980175	    -11.89868202	    -48.93875208	      7.91248545	     -9.26921193	     -5.72046013	     -3.75001752	      1.88935214	     -2.19796953	     -6.16076200	      0.91352708	    -15.33081394	     -3.26296669	    -13.81579509	     -0.54888682	     -2.33050047
